<?xml version="1.0" encoding="utf-8"?>
<!-- Generator: Adobe Illustrator 23.0.3, SVG Export Plug-In . SVG Version: 6.00 Build 0)  -->
<svg version="1.1" id="Object" xmlns="http://www.w3.org/2000/svg" xmlns:xlink="http://www.w3.org/1999/xlink" x="0px" y="0px"
	 viewBox="0 0 141.38 141.38" style="enable-background:new 0 0 141.38 141.38;" xml:space="preserve">
<style type="text/css">
	.st0{fill:#86BB46;}
</style>
<g>
	<path class="st0" d="M82.39,21.57c26.28,15.62,34.92,49.58,19.31,75.86c-5.42,9.13-13.06,16.12-21.83,20.72
		c18.58-0.29,36.59-9.92,46.78-27.07c15.62-26.28,6.97-60.24-19.31-75.86C90.2,5.02,69.78,5.17,53.32,13.8
		C63.21,13.65,73.26,16.14,82.39,21.57z"/>
	<g>
		<path class="st0" d="M19.13,102.29c2.57,9.06,6.92,17.41,12.61,24.69c4.14,2.98,8.58,5.56,13.28,7.68
			c-6.75-8.02-11.87-17.45-14.79-27.74c-4.01-14.14-4.12-28.45-0.82-41.7c-2.31-6.59-3.76-13.6-4.17-20.88
			C15.92,61.42,13.38,82.04,19.13,102.29z"/>
		<path class="st0" d="M32.89,106.16c3.34,11.76,9.66,22.33,18.04,30.87c7.95,2.8,16.49,4.34,25.4,4.34
			c27.51,0,51.62-14.56,65.05-36.39c-11.62,7.15-25.29,11.28-39.94,11.28c-31.52,0-58.56-19.1-70.21-46.36
			C28.98,81.55,29.42,93.92,32.89,106.16z"/>
		<path class="st0" d="M25.13,39.05C25.29,24.74,29.39,11.38,36.39,0C14.56,13.43,0,37.54,0,65.05c0,21.9,9.23,41.63,24.01,55.55
			c-3.23-5.46-5.78-11.34-7.54-17.55C10.06,80.48,13.59,57.47,25.13,39.05z"/>
	</g>
	<path class="st0" d="M54.09,29.45c0,0-18.88,50.84,31.55,68.53C104.99,48.16,54.09,29.45,54.09,29.45z"/>
</g>
</svg>
