<?xml version="1.0" encoding="utf-8"?>
<!-- Generator: Adobe Illustrator 23.0.3, SVG Export Plug-In . SVG Version: 6.00 Build 0)  -->
<svg version="1.1" id="Capa_1" xmlns="http://www.w3.org/2000/svg" xmlns:xlink="http://www.w3.org/1999/xlink" x="0px" y="0px"
	 viewBox="45.91 184.84 325.84 427.2" style="enable-background:new 45.91 184.84 325.84 427.2;" xml:space="preserve">
<style type="text/css">
	.st0{fill:#FFFFFF;}
</style>
<g>
	<path class="st0" d="M58.01,390.86c0.51,0,1.02,0,1.54,0l122.88-17.41c4.1-0.51,7.68-2.56,10.75-6.14
		c1.54-1.54,2.56-3.58,3.07-5.63c0,0,0,0,0.51,0.51c-0.51,0.51-1.02,1.54-1.02,2.56L182.42,601.8h-15.87
		c-3.07,0-5.12,2.05-5.12,5.12c0,3.07,2.05,5.12,5.12,5.12h84.48c3.07,0,5.12-2.05,5.12-5.12c0-3.07-2.05-5.12-5.12-5.12h-15.87
		l-12.8-233.47c1.02,2.05,2.56,3.58,4.61,5.12l101.89,70.66c2.05,1.54,4.61,2.05,6.66,2.05c3.58,0,7.17-1.54,9.73-4.61
		c3.58-5.12,3.07-12.29-2.05-16.38l-95.23-79.36c-3.07-2.56-7.17-4.1-11.78-4.1c-1.54,0-3.07,0.51-4.1,0.51
		c-0.51-4.1-2.05-8.19-4.61-11.26c0.51,0,1.02-0.51,1.02-0.51c3.58-2.56,6.14-6.14,6.66-10.24l27.14-121.34
		c1.54-6.14-2.56-12.29-8.7-13.82c-5.63-1.02-12.29,2.05-14.34,8.19l-37.89,117.76c-1.02,4.1-1.02,8.19,1.02,12.29
		c0,0.51,0.51,1.02,0.51,1.02c-2.56,1.02-5.12,2.56-7.17,4.61c-3.58,3.07-5.63,7.17-6.66,11.78c-0.51,0-0.51-0.51-1.02-0.51
		c-3.58-2.05-8.19-2.56-12.29-1.54L54.94,367.3c-6.14,1.54-10.24,7.68-8.7,13.82C47.26,386.76,52.38,390.86,58.01,390.86z
		 M192.66,601.8l12.8-232.45h6.14l13.31,232.45H192.66z M236.7,352.46C236.7,352.46,237.21,352.46,236.7,352.46
		c2.05,0,3.58,0.51,4.61,1.54l95.23,78.85c0.51,0.51,1.02,1.54,0,2.56c-0.51,0.51-1.54,1.02-2.05,0.51L232.6,365.26
		c-1.54-1.02-2.56-2.56-2.56-4.1l0,0c-0.51-2.05,0-4.1,1.54-6.14C232.6,353.48,234.14,352.46,236.7,352.46z M211.61,314.06
		L249.5,196.3c0-0.51,1.02-1.02,1.54-1.02h0.51c1.02,0,1.54,1.02,1.02,2.05l-27.14,120.83c-0.51,1.54-1.54,3.07-3.07,4.1
		c-1.54,1.02-4.1,1.54-6.14,1.02c-2.05-0.51-3.58-2.05-4.61-4.1C211.1,317.64,211.1,316.1,211.61,314.06z M202.9,336.58
		c2.05-2.05,5.12-3.07,8.19-3.07c6.14,0.51,11.26,5.63,10.75,11.78c0,3.07-1.54,5.63-3.58,7.68s-5.12,3.07-8.19,3.07
		s-5.63-1.54-7.68-3.58s-3.07-5.12-3.07-8.19C199.32,341.7,200.34,338.63,202.9,336.58z M57.5,377.54l120.83-28.67
		c0.51,0,1.02,0,1.54,0c1.02,0,2.56,0.51,3.58,1.02c2.05,1.02,3.07,3.07,3.58,5.12c0.51,2.05,0,4.1-1.54,6.14
		c-1.02,1.54-2.56,2.05-4.1,2.56l-122.88,16.9c-1.02,0-1.54-0.51-2.05-1.54C56.47,378.57,56.98,377.54,57.5,377.54z"/>
	<path class="st0" d="M206.49,211.66c-67.07,2.05-122.88,54.27-129.54,120.83c-0.51,2.56,1.54,5.12,4.61,5.63h0.51
		c2.56,0,4.61-2.05,5.12-4.61C93.34,271.56,145.05,223.94,207,221.9c3.07,0,5.12-2.56,5.12-5.12
		C211.61,213.7,209.05,211.66,206.49,211.66z"/>
	<path class="st0" d="M77.46,262.34c1.54,0,3.07-1.02,4.1-2.05c29.18-43.01,77.31-67.07,128.51-64.51c3.07,0,5.12-2.05,5.12-5.12
		c0-3.07-2.05-5.12-5.12-5.12c-54.27-3.07-105.98,23.04-136.7,68.61c-1.54,2.56-1.02,5.63,1.54,7.17
		C75.42,261.83,76.44,262.34,77.46,262.34z"/>
	<path class="st0" d="M51.35,344.78L51.35,344.78c3.07,0,5.12-2.05,5.12-5.12c1.02-19.46,5.63-40.45,11.78-55.81
		c1.02-2.56,0-5.63-2.56-6.66c-2.56-1.02-5.63,0-6.66,2.56c-7.17,15.87-11.78,38.91-12.8,59.39
		C46.23,342.22,48.28,344.78,51.35,344.78z"/>
	<path class="st0" d="M333.46,305.86c-2.56,0.51-4.61,3.58-3.58,6.14c6.14,25.6,3.58,51.71-7.17,75.78c-1.02,2.56,0,5.63,2.56,6.66
		c0.51,0.51,1.54,0.51,2.05,0.51c2.05,0,3.58-1.02,4.61-3.07c11.78-26.11,14.34-54.27,8.19-81.92
		C339.1,306.89,336.02,305.35,333.46,305.86z"/>
	<path class="st0" d="M276.63,237.77c19.97,12.29,35.84,30.72,45.57,52.22c1.02,2.05,2.56,3.07,4.61,3.07c0.51,0,1.54,0,2.05-0.51
		c2.56-1.02,3.58-4.1,2.56-6.66c-10.75-23.55-27.65-43.01-49.66-56.83c-2.56-1.54-5.63-0.51-7.17,1.54
		C273.56,233.16,274.58,236.23,276.63,237.77z"/>
	<path class="st0" d="M343.7,402.12c-1.54,2.56-0.51,5.63,2.05,7.17c1.02,0.51,1.54,0.51,2.56,0.51c2.05,0,3.58-1.02,4.61-2.56
		c25.6-46.59,25.09-101.38-1.54-147.46c-1.54-2.56-4.61-3.07-7.17-2.05c-2.56,1.54-3.07,4.61-2.05,7.17
		C366.74,307.4,367.26,358.6,343.7,402.12z"/>
	<path class="st0" d="M284.31,209.61c16.38,8.7,32.77,22.02,43.01,33.79c1.02,1.02,2.56,1.54,4.1,1.54c1.02,0,2.56-0.51,3.58-1.02
		c2.05-2.05,2.56-5.12,0.51-7.17c-10.75-12.8-28.16-26.62-45.57-35.84c-2.56-1.54-5.63-0.51-7.17,2.05
		C280.73,205,281.75,208.07,284.31,209.61z"/>
	<path class="st0" d="M276.63,451.27c1.02,0,1.54,0,2.56-0.51c4.61-2.56,6.14-4.1,9.22-6.14l2.05-1.54
		c2.05-1.54,2.56-5.12,1.02-7.17c-1.54-2.05-5.12-2.56-7.17-1.02l-2.05,1.54c-3.07,2.56-4.1,3.07-8.19,5.63
		c-2.56,1.54-3.07,4.61-2.05,7.17C273.05,450.25,274.58,451.27,276.63,451.27z"/>
	<path class="st0" d="M259.22,487.11c1.02,2.05,2.56,3.07,4.61,3.07c0.51,0,1.02,0,2.05-0.51c6.14-2.56,12.8-5.63,19.97-9.73
		c5.63-3.07,10.75-6.66,15.87-10.75c4.61-3.58,9.22-7.17,13.31-10.75c2.05-2.05,2.56-5.12,0.51-7.17c-2.05-2.05-5.12-2.56-7.17-0.51
		c-3.58,3.58-8.19,6.66-12.29,9.73c-5.12,3.58-10.24,7.17-15.36,9.73c-6.66,3.58-12.8,6.66-18.43,9.22
		C259.74,481.48,258.2,484.55,259.22,487.11z"/>
</g>
</svg>
