<?xml version="1.0" encoding="utf-8"?>
<!-- Generator: Adobe Illustrator 23.0.3, SVG Export Plug-In . SVG Version: 6.00 Build 0)  -->
<svg version="1.1" id="Слой_1" xmlns="http://www.w3.org/2000/svg" xmlns:xlink="http://www.w3.org/1999/xlink" x="0px" y="0px"
	 viewBox="0 0 511 463" style="enable-background:new 0 0 511 463;" xml:space="preserve">
<style type="text/css">
	.st0{clip-path:url(#SVGID_2_);fill:#FFFFFF;}
	.st1{fill:#FFFFFF;}
</style>
<g>
	<g>
		<defs>
			<rect id="SVGID_1_" width="511" height="463"/>
		</defs>
		<clipPath id="SVGID_2_">
			<use xlink:href="#SVGID_1_"  style="overflow:visible;"/>
		</clipPath>
		<path class="st0" d="M49.9,262.54c-5.51,0-9.98,4.47-9.98,9.98c0,5.51,4.47,9.98,9.98,9.98c5.51,0,9.98-4.47,9.98-9.98
			C59.88,267.01,55.41,262.54,49.9,262.54L49.9,262.54z M49.9,262.54"/>
		<path class="st0" d="M458.72,297.15l-94.09,32.35c0.42-2.32,0.65-4.68,0.65-7.08c0-22.01-17.91-39.92-39.92-39.92h-64.63
			c-1.72,0-3.41-0.44-4.9-1.28l-52.73-29.66c-10.42-5.88-22.27-8.98-34.26-8.98H98.09c-4.12-11.61-15.21-19.96-28.22-19.96H9.98
			c-5.51,0-9.98,4.47-9.98,9.98v179.65c0,5.51,4.47,9.98,9.98,9.98h59.88c12.71,0,23.61-7.99,27.94-19.21
			c11.3,1.4,24.37,4.75,32.59,9.67L182.59,444c19.77,11.87,42.41,18.14,65.48,18.14c18.28,0,35.99-3.84,52.63-11.4l186.28-82.02
			c20.63-8.37,30.82-33.12,19.03-54.94C497.33,297.73,477.01,290.58,458.72,297.15L458.72,297.15z M79.84,392.33
			c-0.02,5.48-4.5,9.93-9.98,9.93h-49.9V242.57h49.9c5.5,0,9.98,4.48,9.98,9.98V392.33z M479.39,350.26
			c-0.11,0.04-0.21,0.09-0.32,0.13c0,0-186.55,82.14-186.59,82.16c-14.05,6.39-29,9.64-44.43,9.64c-19.44,0-38.53-5.29-55.21-15.3
			l-52.19-31.32c-11.18-6.7-27.18-10.79-40.86-12.43V262.54h69.03c8.56,0,17.02,2.21,24.47,6.41l52.73,29.66
			c4.47,2.52,9.55,3.85,14.69,3.85h64.63c11.01,0,19.96,8.95,19.96,19.96c0,10.97-8.96,19.96-19.96,19.96H223.9
			c-5.51,0-9.98,4.47-9.98,9.98c0,5.51,4.47,9.98,9.98,9.98h101.46c6.55,0,12.99-1.63,18.71-4.68c0,0,121.3-41.7,121.35-41.71
			c8.94-3.23,19.06-0.02,23.02,7.32C494.39,334.27,489.47,346.23,479.39,350.26L479.39,350.26z M479.39,350.26"/>
	</g>
	<path class="st1" d="M290.68,243.03c1.88,1.63,4.2,2.44,6.53,2.44c2.33,0,4.66-0.81,6.54-2.44
		c81.43-70.57,131.8-106.29,131.8-161.79c0-43.91-31.08-80.29-74.75-80.29c-28.68,0-50.64,16.53-64.78,41.34
		c-14.11-24.75-36.05-41.34-64.77-41.34c-33.43,0-61.38,21.67-71.2,55.19c-1.55,5.29,1.48,10.83,6.77,12.39
		c5.29,1.55,10.83-1.48,12.38-6.77c7.27-24.81,27.7-40.84,52.05-40.84c28.47,0,48.44,25.29,55.16,48.82
		c1.2,4.32,5.13,7.32,9.62,7.32c4.49,0,8.42-2.99,9.62-7.32c0.14-0.49,14-48.82,55.16-48.82c31.24,0,54.79,25.93,54.79,60.33
		c0,44.4-43.4,76.41-118.39,141.06c-45.69-39.24-81.98-66.86-102.6-93.87c-3.35-4.38-9.61-5.23-13.99-1.88
		c-4.38,3.34-5.22,9.61-1.88,13.99C201.98,171,241.23,200.18,290.68,243.03L290.68,243.03z M290.68,243.03"/>
	<path class="st1" d="M168.67,88.88c-5.51,0-9.98,4.47-9.98,9.98c0,5.51,4.47,9.98,9.98,9.98c5.51,0,9.98-4.47,9.98-9.98
		C178.65,93.35,174.18,88.88,168.67,88.88L168.67,88.88z M168.67,88.88"/>
</g>
</svg>
