<?xml version="1.0" encoding="utf-8"?>
<!-- Generator: Adobe Illustrator 23.0.3, SVG Export Plug-In . SVG Version: 6.00 Build 0)  -->
<svg version="1.1" id="Layer_1" xmlns="http://www.w3.org/2000/svg" xmlns:xlink="http://www.w3.org/1999/xlink" x="0px" y="0px"
	 viewBox="0 0 67.81 50" style="enable-background:new 0 0 67.81 50;" xml:space="preserve">
<style type="text/css">
	.st0{fill:#FFFFFF;}
</style>
<path class="st0" d="M40.07,40.95h27.74L61,0H6.81L0,40.95h27.39v4.25h-6.18V50h25.03v-4.81h-6.18V40.95z M40.07,18.65h10.25
	l0.78,8.62H40.36L40.07,18.65z M40.73,38.22l-0.33-9.62h10.81l0.87,9.62H40.73z M64.79,38.22H53.44l-0.93-9.62h10.8L64.79,38.22z
	 M63.11,27.27H52.38l-0.84-8.62h10.24L63.11,27.27z M61.6,17.46H51.43l-0.75-7.78h9.74L61.6,17.46z M59.17,1.56l1.08,7.05h-9.69
	l-0.69-7.05H59.17z M50.21,17.46H40.03l-0.26-7.78h9.75L50.21,17.46z M48.78,1.56l0.64,7.05h-9.69l-0.24-7.05H48.78z M29.1,1.56
	h9.29l0.19,7.05h-9.68L29.1,1.56z M28.86,9.68h9.75l0.21,7.78H28.63L28.86,9.68z M28.6,18.65h10.25l0.24,8.62H28.34L28.6,18.65z
	 M28.31,28.6h10.81l0.26,9.62H28.02L28.31,28.6z M18.7,1.56h9.29l-0.25,7.05h-9.68L18.7,1.56z M27.7,9.68l-0.28,7.78H17.23
	l0.72-7.78H27.7z M8.31,1.56h9.29l-0.7,7.05H7.21L8.31,1.56z M7.04,9.68h9.75l-0.77,7.78H5.83L7.04,9.68z M13.96,38.22H2.6l1.5-9.62
	h10.81L13.96,38.22z M4.31,27.27l1.34-8.62H15.9l-0.86,8.62H4.31z M26.67,38.22H15.31l0.89-9.62h10.81L26.67,38.22z M27.06,27.27
	H16.33l0.8-8.62h10.25L27.06,27.27z"/>
</svg>
