<?xml version="1.0" encoding="utf-8"?>
<!-- Generator: Adobe Illustrator 23.0.3, SVG Export Plug-In . SVG Version: 6.00 Build 0)  -->
<svg version="1.1" id="Layer_1" xmlns="http://www.w3.org/2000/svg" xmlns:xlink="http://www.w3.org/1999/xlink" x="0px" y="0px"
	 viewBox="0 0 70.61 72.03" style="enable-background:new 0 0 70.61 72.03;" xml:space="preserve">
<style type="text/css">
	.st0{fill:#FFFFFF;}
</style>
<g>
	<path class="st0" d="M67.58,43.49c-0.92-0.67-1.99-1.45-3.15-2.27c-1.15-0.83-2.41-1.67-3.65-2.53c-0.62-0.43-1.23-0.88-1.83-1.33
		c-0.6-0.45-1.19-0.88-1.79-1.24c-0.61-0.36-1.22-0.66-1.82-0.91c-0.6-0.26-1.18-0.48-1.72-0.66c-0.47-0.16-0.92-0.29-1.33-0.4
		c-0.08,0.75-0.47,1.4-1.04,1.83c0.3,0.3,0.63,0.62,1,0.95c0.43,0.38,0.91,0.77,1.44,1.16c0.52,0.4,1.09,0.78,1.7,1.12
		c0.62,0.34,1.29,0.64,1.98,0.93c0.69,0.29,1.38,0.59,2.06,0.92c1.37,0.65,2.72,1.32,4.01,1.9c1.29,0.6,2.5,1.13,3.54,1.6
		c2.08,0.92,3.49,1.49,3.49,1.49l0.17-0.3C70.61,45.76,69.41,44.83,67.58,43.49z"/>
	<path class="st0" d="M48.24,30.09c0.09,0.48,0.2,0.92,0.31,1.33c0.33-0.15,0.7-0.23,1.08-0.23c0.37,0,0.72,0.08,1.04,0.21
		c0.11-0.4,0.22-0.83,0.31-1.31c0.12-0.56,0.22-1.18,0.29-1.82c0.08-0.65,0.13-1.33,0.13-2.03c-0.01-0.71-0.08-1.44-0.17-2.18
		c-0.09-0.74-0.17-1.49-0.23-2.25c-0.12-1.51-0.21-3.01-0.35-4.42c-0.12-1.41-0.26-2.73-0.38-3.86c-0.24-2.26-0.44-3.77-0.44-3.77
		h-0.34c0,0-0.21,1.5-0.46,3.76c-0.12,1.13-0.27,2.45-0.4,3.86c-0.15,1.41-0.25,2.92-0.37,4.42c-0.06,0.75-0.14,1.51-0.24,2.25
		c-0.09,0.74-0.17,1.47-0.18,2.18c-0.01,0.71,0.04,1.39,0.12,2.04C48.03,28.91,48.13,29.52,48.24,30.09z"/>
	<path class="st0" d="M49.64,35.75c1.04,0,1.89-0.85,1.89-1.9c0-1.05-0.85-1.9-1.89-1.9c-1.05,0-1.9,0.85-1.9,1.9
		C47.74,34.9,48.59,35.75,49.64,35.75z"/>
	<path class="st0" d="M27.52,28.59c0.13,0.68,0.28,1.3,0.44,1.87c0.46-0.21,0.98-0.33,1.52-0.33c0.52,0,1.02,0.11,1.47,0.3
		c0.16-0.56,0.31-1.17,0.44-1.84c0.16-0.79,0.3-1.65,0.41-2.56c0.12-0.91,0.19-1.87,0.18-2.86c-0.01-0.99-0.12-2.02-0.25-3.06
		c-0.13-1.04-0.25-2.1-0.33-3.16c-0.16-2.12-0.3-4.24-0.5-6.22c-0.17-1.99-0.37-3.84-0.53-5.43C30.03,2.12,29.75,0,29.75,0l-0.48,0
		c0,0-0.29,2.12-0.64,5.29c-0.17,1.59-0.37,3.44-0.56,5.43c-0.21,1.99-0.35,4.1-0.52,6.22c-0.09,1.06-0.21,2.12-0.34,3.16
		c-0.13,1.04-0.24,2.07-0.26,3.06c-0.01,0.99,0.05,1.95,0.17,2.86C27.22,26.94,27.35,27.8,27.52,28.59z"/>
	<path class="st0" d="M27.25,36.9c-0.81-0.6-1.37-1.53-1.48-2.59c-0.58,0.15-1.19,0.33-1.84,0.55c-0.77,0.26-1.58,0.57-2.42,0.93
		c-0.84,0.35-1.71,0.78-2.56,1.28c-0.85,0.51-1.69,1.12-2.53,1.75c-0.84,0.63-1.7,1.27-2.57,1.87c-1.75,1.2-3.52,2.39-5.13,3.55
		c-1.63,1.15-3.14,2.25-4.43,3.19C1.69,49.33,0,50.63,0,50.63l0.24,0.42c0,0,1.98-0.81,4.9-2.1c1.46-0.65,3.16-1.4,4.97-2.24
		c1.82-0.82,3.73-1.75,5.64-2.67c0.96-0.46,1.94-0.88,2.9-1.29c0.97-0.41,1.91-0.83,2.78-1.31c0.86-0.49,1.66-1.02,2.39-1.58
		c0.74-0.55,1.41-1.1,2.02-1.63C26.37,37.77,26.83,37.32,27.25,36.9z"/>
	<path class="st0" d="M50.89,44.68l-0.31-8.34c-0.29,0.11-0.61,0.18-0.94,0.18c-0.33,0-0.65-0.07-0.94-0.18l-0.25,6.62
		c-1.08-0.75-2.19-1.5-3.3-2.26c-0.58-0.4-1.15-0.82-1.72-1.23c0.17-0.08,0.34-0.16,0.5-0.25c0.62-0.35,1.18-0.73,1.7-1.12
		c0.52-0.39,1-0.78,1.44-1.16c0.37-0.32,0.7-0.64,0.99-0.94c-0.58-0.43-0.97-1.08-1.06-1.84c-0.41,0.11-0.85,0.23-1.31,0.39
		c-0.55,0.18-1.13,0.4-1.72,0.66c-0.6,0.25-1.22,0.55-1.82,0.91c-0.58,0.35-1.16,0.76-1.73,1.19c-0.12-0.08-0.24-0.16-0.36-0.23
		c-0.86-0.51-1.72-0.93-2.57-1.28c-0.84-0.37-1.66-0.68-2.42-0.93c-0.67-0.23-1.29-0.41-1.88-0.56c-0.12,1.05-0.66,1.97-1.47,2.58
		c0.42,0.42,0.88,0.87,1.41,1.33c0.61,0.54,1.28,1.09,2.02,1.63c0.26,0.2,0.55,0.4,0.83,0.59c-0.37,0.26-0.75,0.52-1.11,0.78
		c-1.16,0.82-2.23,1.6-3.15,2.27c-0.24,0.17-0.46,0.34-0.67,0.5L30.8,37.4c-0.41,0.16-0.86,0.25-1.32,0.25
		c-0.47,0-0.91-0.1-1.32-0.25l-1.18,31.73h-2.81v2.9h10.64v-2.9h-2.81l-0.9-24.03c0.38-0.17,0.8-0.35,1.25-0.55
		c1.04-0.46,2.25-1,3.54-1.6c0.79-0.36,1.61-0.75,2.44-1.14c0.65,0.32,1.32,0.63,2.01,0.92c0.97,0.41,1.94,0.84,2.9,1.29
		c1.73,0.82,3.44,1.65,5.1,2.41l-0.46,12.46h-2v2.06h7.56v-2.06h-2L51,47.68c1.01,0.46,1.97,0.88,2.84,1.27
		c2.92,1.29,4.9,2.1,4.9,2.1l0.24-0.42c0,0-1.69-1.31-4.27-3.2C53.58,46.62,52.28,45.67,50.89,44.68z"/>
	<path class="st0" d="M29.47,36.56c1.47,0,2.67-1.19,2.67-2.67c0-1.47-1.2-2.67-2.67-2.67c-1.47,0-2.67,1.19-2.67,2.67
		C26.81,35.37,28,36.56,29.47,36.56z"/>
</g>
</svg>
