<?xml version="1.0" encoding="utf-8"?>
<!-- Generator: Adobe Illustrator 23.0.3, SVG Export Plug-In . SVG Version: 6.00 Build 0)  -->
<svg version="1.1" id="Layer_1" xmlns="http://www.w3.org/2000/svg" xmlns:xlink="http://www.w3.org/1999/xlink" x="0px" y="0px"
	 viewBox="0 0 48.66 57.28" style="enable-background:new 0 0 48.66 57.28;" xml:space="preserve">
<style type="text/css">
	.st0{fill:#FFFFFF;}
</style>
<path class="st0" d="M48.2,18.79h-0.5c0.01-0.35,0.02-0.69,0.03-1.04c0.02-0.64-0.59-1.16-1.36-1.16c-0.03,0-0.05,0-0.08,0
	l-0.19-5.48h-0.73l-0.19,5.48c-0.03,0-0.05,0-0.08,0c-0.76,0-1.37,0.52-1.35,1.16c0.01,0.36,0.02,0.7,0.03,1.04h-0.5
	c-0.25,0-0.46,0.21-0.46,0.46v0.16c0,0.25,0.21,0.46,0.46,0.46h0.53c0.01,0.37,0.02,0.75,0.03,1.11c0.03,1.02,0.05,1.99,0.08,2.92
	c0.02,0.93,0.05,1.83,0.07,2.7c0.02,0.88,0.04,1.73,0.07,2.59c0.02,0.86,0.05,1.72,0.07,2.59c0.03,0.88,0.05,1.77,0.07,2.7
	c0.02,0.93,0.05,1.9,0.08,2.91c0.03,1.02,0.06,2.09,0.09,3.24c0.01,0.57,0.36,1.04,0.79,1.14c-0.16,1.02-2.51,14.35-12.09,14.35
	c-3.02,0-5.36-0.86-6.96-2.55c-1.02-1.08-1.59-2.35-1.92-3.51h2.69c0.18,0,0.36-0.02,0.53-0.05c0.94,2.03,2.64,3.95,5.42,3.95
	c5.43,0,6.79-11.61,6.85-12.1c0-0.03-0.01-0.05-0.01-0.08c0.45-0.08,0.8-0.56,0.81-1.14c0.03-1.14,0.06-2.22,0.08-3.24
	c0.03-1.02,0.05-1.99,0.08-2.92c0.03-0.93,0.05-1.82,0.07-2.7c0.02-0.88,0.05-1.73,0.07-2.59c0.02-0.86,0.05-1.72,0.07-2.59
	c0.03-0.88,0.05-1.77,0.08-2.7c0.02-0.93,0.05-1.89,0.08-2.92c0.01-0.36,0.02-0.73,0.03-1.11h0.53c0.25,0,0.46-0.21,0.46-0.46v-0.16
	c0-0.25-0.21-0.46-0.46-0.46h-0.5c0.01-0.35,0.02-0.69,0.03-1.04c0.02-0.64-0.59-1.16-1.35-1.16c-0.03,0-0.05,0-0.08,0l-0.19-5.48
	h-0.73l-0.19,5.48c-0.03,0-0.05,0-0.08,0c-0.77,0-1.37,0.52-1.36,1.16c0.01,0.36,0.02,0.7,0.03,1.04h-0.5
	c-0.25,0-0.46,0.21-0.46,0.46v0.16c0,0.25,0.21,0.46,0.46,0.46h0.53c0.01,0.37,0.02,0.75,0.03,1.11c0.03,1.02,0.05,1.99,0.08,2.92
	c0.03,0.93,0.05,1.83,0.07,2.7c0.02,0.88,0.05,1.73,0.07,2.59c0.02,0.86,0.05,1.72,0.07,2.59c0.02,0.88,0.05,1.77,0.07,2.7
	c0.02,0.93,0.05,1.9,0.08,2.91c0.03,1.02,0.06,2.09,0.09,3.24c0.02,0.57,0.36,1.04,0.8,1.14c-0.36,3.11-2.05,11.03-5.7,11.03
	c-2.32,0-3.63-1.64-4.35-3.22c0.78-0.52,1.3-1.4,1.3-2.41V2.89c0-1.59-1.29-2.89-2.89-2.89H2.89C1.29,0,0,1.29,0,2.89v44.29
	c0,1.59,1.29,2.89,2.89,2.89h20.09c0.36,1.38,1.02,2.95,2.28,4.29c1.82,1.94,4.45,2.92,7.81,2.92c10.89,0,13.22-15.25,13.24-15.4
	c0-0.03,0-0.07-0.01-0.1c0.45-0.08,0.8-0.56,0.81-1.14c0.03-1.14,0.06-2.22,0.08-3.24c0.03-1.02,0.05-1.99,0.08-2.92
	c0.02-0.93,0.05-1.82,0.07-2.7c0.02-0.88,0.05-1.73,0.07-2.59c0.02-0.86,0.05-1.72,0.07-2.59c0.02-0.88,0.05-1.77,0.07-2.7
	c0.03-0.93,0.05-1.89,0.08-2.92c0.01-0.36,0.02-0.73,0.03-1.11h0.53c0.26,0,0.46-0.21,0.46-0.46v-0.16
	C48.66,19,48.45,18.79,48.2,18.79z M22.44,46.84v-0.26h0.59v-0.59h0.26v0.59h0.6v0.26h-0.6v0.59h-0.26v-0.59H22.44z M27.72,46.84
	h-1.44v-0.26h1.44V46.84z M27.04,45.16c0.86,0,1.55,0.69,1.55,1.55c0,0.54-0.28,1.01-0.69,1.29c-0.06-0.2-0.1-0.4-0.14-0.57
	c0.18-0.19,0.3-0.44,0.3-0.72c0-0.56-0.45-1.02-1.02-1.02c-0.56,0-1.02,0.46-1.02,1.02c0,0.41,0.24,0.76,0.59,0.92
	c0.04,0.19,0.09,0.4,0.15,0.6c-0.72-0.13-1.27-0.76-1.27-1.52C25.48,45.85,26.18,45.16,27.04,45.16z M21.61,31.02v-2.45h5.15v2.45
	H21.61z M3,3.1h23.76v24.02H3V3.1z M20.56,31.02h-5.15v-2.45h5.15V31.02z M14.36,28.57v2.45H9.21v-2.45H14.36z M3,28.57h5.15v2.45H3
	V28.57z M4.25,48.26c-1.18,0-2.13-0.95-2.13-2.13c0-1.17,0.95-2.13,2.13-2.13c1.18,0,2.13,0.95,2.13,2.13
	C6.38,47.31,5.42,48.26,4.25,48.26z M7.24,40.18c0-4.23,3.42-7.65,7.65-7.65c1.59,0,3.06,0.48,4.29,1.31L8.55,44.46
	C7.72,43.24,7.24,41.77,7.24,40.18z M14.88,47.82c-1.59,0-3.06-0.48-4.28-1.31L21.22,35.9c0.83,1.22,1.31,2.7,1.31,4.29
	C22.53,44.4,19.11,47.82,14.88,47.82z M21.61,46.71c0-0.86,0.69-1.55,1.55-1.55c0.86,0,1.55,0.69,1.55,1.55
	c0,0.63-0.38,1.17-0.91,1.41c-0.02-0.22-0.04-0.43-0.05-0.6c0.25-0.19,0.43-0.47,0.43-0.81c0-0.56-0.46-1.02-1.02-1.02
	c-0.56,0-1.02,0.46-1.02,1.02c0,0.35,0.19,0.64,0.46,0.83c0.01,0.18,0.02,0.4,0.04,0.63C22.04,47.94,21.61,47.38,21.61,46.71z"/>
</svg>
