<?xml version="1.0" encoding="utf-8"?>
<!-- Generator: Adobe Illustrator 23.0.3, SVG Export Plug-In . SVG Version: 6.00 Build 0)  -->
<svg version="1.1" id="OBJECTS" xmlns="http://www.w3.org/2000/svg" xmlns:xlink="http://www.w3.org/1999/xlink" x="0px" y="0px"
	 viewBox="0 0 38.91 38.91" style="enable-background:new 0 0 38.91 38.91;" xml:space="preserve">
<style type="text/css">
	.st0{fill:none;stroke:#86BB46;stroke-width:1.3469;stroke-linecap:round;stroke-linejoin:round;stroke-miterlimit:10;}
</style>
<g>
	<path class="st0" d="M4.03,2.05L2.25,4.97c0,0-6.76,9.26,7.72,23.84l0,0c0.02,0.02,0.05,0.04,0.07,0.07
		c0.02,0.02,0.04,0.05,0.07,0.07l0,0c14.58,14.48,23.84,7.72,23.84,7.72l2.92-1.78c1.67-1.26,1.85-3.7,0.37-5.18l-3.48-3.48
		c-1.21-1.21-3.13-1.35-4.5-0.32l-3.7,2.37c0,0-2.49,1.47-9.45-5.46c-6.93-6.96-5.46-9.45-5.46-9.45l2.37-3.7
		c1.03-1.37,0.89-3.28-0.32-4.5L9.21,1.68C7.73,0.2,5.28,0.37,4.03,2.05z"/>
	<g>
		<path class="st0" d="M21.65,9.69c2.17-2.17,5.68-2.17,7.85,0c2.17,2.17,2.17,5.68,0,7.85"/>
		<path class="st0" d="M19.16,7.19c3.54-3.54,9.29-3.54,12.83,0s3.54,9.29,0,12.83"/>
		<path class="st0" d="M16.62,4.66c4.95-4.95,12.96-4.95,17.91,0c4.95,4.95,4.95,12.96,0,17.91"/>
	</g>
</g>
</svg>
