<?xml version="1.0" encoding="utf-8"?>
<!-- Generator: Adobe Illustrator 23.0.3, SVG Export Plug-In . SVG Version: 6.00 Build 0)  -->
<svg version="1.1" id="Слой_1" xmlns="http://www.w3.org/2000/svg" xmlns:xlink="http://www.w3.org/1999/xlink" x="0px" y="0px"
	 viewBox="0 0 48 44" style="enable-background:new 0 0 48 44;" xml:space="preserve">
<style type="text/css">
	.st0{fill:#FFFFFF;}
</style>
<g>
	<path class="st0" d="M44.01,34.31l-7.64-3.82c-0.72-0.36-1.17-1.09-1.17-1.89v-2.7c0.18-0.23,0.38-0.48,0.57-0.76
		c0.99-1.4,1.79-2.96,2.36-4.64C39.27,19.98,40,18.86,40,17.6v-3.2c0-0.77-0.29-1.51-0.8-2.1V8.04c0.05-0.44,0.22-3.06-1.67-5.22
		C35.88,0.95,33.22,0,29.6,0c-3.62,0-6.29,0.95-7.93,2.82c-1.15,1.31-1.53,2.79-1.65,3.84C18.65,5.96,17.03,5.6,15.2,5.6
		c-8.31,0-8.79,7.08-8.8,7.2v3.66c-0.52,0.56-0.8,1.21-0.8,1.86v2.76c0,0.86,0.39,1.67,1.05,2.21c0.66,2.49,2.29,4.37,2.91,5.03
		v2.19c0,0.63-0.34,1.21-0.93,1.54L3.3,35.4C1.27,36.51,0,38.64,0,40.96V44h48v-3.23C48,38.02,46.47,35.54,44.01,34.31L44.01,34.31z
		 M11.2,40.61v1.79H1.6v-1.44c0-1.73,0.95-3.33,2.51-4.18l5.32-3.34c1.07-0.58,1.73-1.7,1.73-2.92v-2.87l-0.25-0.24
		c-0.02-0.02-2.15-2.03-2.78-4.76l-0.07-0.32l-0.27-0.18c-0.37-0.24-0.59-0.64-0.59-1.07v-2.76c0-0.29,0.2-0.63,0.54-0.94L8,17.15
		v-4.3c0.01-0.23,0.43-5.65,7.2-5.65c1.91,0,3.53,0.44,4.8,1.32v3.79c-0.51,0.58-0.8,1.33-0.8,2.1v3.2c0,0.24,0.03,0.48,0.08,0.71
		c0.02,0.09,0.06,0.18,0.09,0.27c0.04,0.13,0.08,0.27,0.14,0.4c0,0,0,0,0,0c0.2,0.42,0.5,0.8,0.88,1.1c0,0.02,0.01,0.03,0.01,0.04
		c0.05,0.18,0.1,0.37,0.15,0.55l0.07,0.21c0.01,0.04,0.02,0.07,0.04,0.11c0.03,0.09,0.05,0.17,0.09,0.25
		c0.05,0.14,0.1,0.29,0.16,0.44c0.02,0.06,0.05,0.13,0.08,0.19c0.06,0.17,0.13,0.33,0.2,0.49c0.02,0.04,0.03,0.08,0.05,0.12
		l0.05,0.1c0.02,0.05,0.04,0.09,0.06,0.13c0.08,0.17,0.16,0.34,0.23,0.5c0.01,0.02,0.02,0.05,0.04,0.08c0.05,0.1,0.1,0.19,0.15,0.29
		c0.09,0.16,0.17,0.32,0.26,0.47c0.04,0.07,0.08,0.15,0.12,0.21c0.12,0.2,0.23,0.38,0.33,0.54c0.02,0.04,0.05,0.07,0.07,0.11
		c0.19,0.3,0.36,0.54,0.5,0.73c0.04,0.05,0.07,0.09,0.1,0.13c0.02,0.02,0.04,0.06,0.06,0.08v2.65c0,0.77-0.42,1.48-1.1,1.86
		l-2.12,1.16l-0.37-0.04l-0.15,0.32l-4.5,2.46C12.64,35.54,11.2,37.96,11.2,40.61L11.2,40.61z M46.4,42.4H12.8v-1.79
		c0-2.05,1.12-3.94,2.93-4.93l7.14-3.9c1.2-0.65,1.94-1.9,1.94-3.26v-3.21l-0.16-0.18l-0.03-0.04c0,0-0.05-0.06-0.13-0.17
		c0,0-0.01-0.01-0.01-0.02c-0.04-0.05-0.09-0.12-0.15-0.2c0,0,0,0,0,0c-0.12-0.16-0.27-0.38-0.44-0.64c0,0,0-0.01-0.01-0.02
		c-0.08-0.13-0.16-0.26-0.25-0.4c-0.01-0.01-0.02-0.02-0.02-0.03c-0.18-0.3-0.38-0.65-0.57-1.03c0,0,0,0,0,0
		c-0.1-0.2-0.2-0.42-0.3-0.64c-0.02-0.03-0.03-0.06-0.04-0.09c-0.04-0.1-0.09-0.2-0.13-0.31c-0.02-0.04-0.03-0.08-0.05-0.12
		c-0.04-0.11-0.09-0.21-0.13-0.33c-0.08-0.22-0.16-0.44-0.23-0.68l-0.04-0.14c0-0.02-0.01-0.04-0.01-0.05
		c-0.07-0.25-0.15-0.51-0.21-0.78l-0.08-0.32l-0.27-0.18c-0.46-0.3-0.74-0.8-0.74-1.34v-3.2c0-0.44,0.19-0.87,0.54-1.18l0.27-0.24
		V7.72L21.58,7.7c-0.03-0.58,0.01-2.35,1.3-3.82C24.2,2.37,26.46,1.6,29.6,1.6c3.12,0,5.38,0.76,6.71,2.26
		c1.56,1.76,1.3,4.01,1.3,4.03l0,5.08l0.26,0.24c0.35,0.31,0.54,0.73,0.54,1.18v3.2c0,0.7-0.46,1.31-1.14,1.52l-0.4,0.12l-0.13,0.4
		c-0.54,1.66-1.3,3.2-2.26,4.57c-0.24,0.34-0.47,0.64-0.67,0.86l-0.2,0.23v3.3c0,1.42,0.79,2.69,2.05,3.32l7.64,3.82
		c1.91,0.96,3.1,2.88,3.1,5.02V42.4z M46.4,42.4"/>
</g>
</svg>
