<?xml version="1.0" encoding="utf-8"?>
<!-- Generator: Adobe Illustrator 23.0.3, SVG Export Plug-In . SVG Version: 6.00 Build 0)  -->
<svg version="1.1" id="Layer_1" xmlns="http://www.w3.org/2000/svg" xmlns:xlink="http://www.w3.org/1999/xlink" x="0px" y="0px"
	 viewBox="-41.38 141 496.76 512" style="enable-background:new -41.38 141 496.76 512;" xml:space="preserve">
<style type="text/css">
	.st0{fill:#FFFFFF;}
</style>
<path class="st0" d="M18.32,556.7h8.69c4.75,8.17,13.6,13.55,23.43,13.55c14.93,0,27.08-12.15,27.08-27.08V389.06
	c0-7.24-2.82-14.04-7.95-19.17c-5.13-5.1-11.92-7.91-19.13-7.91c-9.81,0-18.66,5.38-23.42,13.54h-3.11v-28.23
	c0-37.85,11.45-74.18,33.11-105.05c19.05-27.15,44.72-48.35,74.65-61.86c4.85,9.14,14.47,15.39,25.53,15.39h99.6
	c11.06,0,20.68-6.25,25.53-15.41c20.12,9.07,38.3,21.63,54.15,37.46c34.58,34.57,53.63,80.55,53.63,129.47v28.23H387
	c-4.75-8.16-13.61-13.54-23.42-13.54c-7.22,0-14.02,2.81-19.16,7.93c-5.12,5.11-7.93,11.91-7.93,19.15v154.11
	c0,9.75,5.2,18.28,12.95,23.05c-14.89,22.97-39.74,38.13-67.08,40.75c-1.68-5.53-4.7-10.59-8.9-14.77
	c-6.72-6.74-15.67-10.45-25.2-10.45h-18.21c-19.65,0-35.63,15.98-35.63,35.63c0,9.53,3.71,18.48,10.43,25.17
	c6.72,6.74,15.67,10.45,25.2,10.45h18.21c16.31,0,30.09-11.02,34.3-26c37.08-2.97,70.63-24.83,88.26-57.75
	c6.83-1.91,12.66-6.45,16.21-12.55h8.67c32.92,0,59.7-26.78,59.7-59.7v-61.77c0-27.96-19.32-51.49-45.31-57.95v-30
	c0-54.26-21.12-105.25-59.48-143.59c-18.83-18.81-40.65-33.47-64.92-43.65v-9.06c0-5.51-4.47-9.98-9.98-9.98H138.3
	c-5.51,0-9.98,4.47-9.98,9.98v9.07c-35.29,14.82-65.49,39.16-87.64,70.72C16.65,265.02,3.95,305.31,3.95,347.29v30
	c-26,6.45-45.32,29.98-45.32,57.95v61.77C-41.38,529.92-14.6,556.7,18.32,556.7z M43.32,389.06c0-0.5,0.05-1.01,0.15-1.49
	c0.69-3.26,3.62-5.63,6.96-5.63c1.89,0,3.69,0.75,5.03,2.08c1.34,1.34,2.08,3.13,2.08,5.03v154.11c0,3.92-3.19,7.11-7.11,7.11
	c-3.35,0-6.27-2.37-6.96-5.64c-0.1-0.48-0.15-0.98-0.15-1.48L43.32,389.06L43.32,389.06z M229.41,633
	c-3.94-0.16-7.63-1.75-10.45-4.58c-2.95-2.94-4.58-6.87-4.58-11.05c0-8.42,6.69-15.29,15.03-15.63V633z M249.38,632.98v-31.21
	c3.76,0.27,7.25,1.84,9.96,4.55c2.95,2.94,4.58,6.87,4.58,11.05C263.91,625.63,257.49,632.4,249.38,632.98z M370.7,543.17
	c0,0.5-0.05,0.99-0.16,1.49c-0.68,3.26-3.61,5.62-6.96,5.62c-3.93,0-7.13-3.19-7.13-7.11V389.06c0-1.9,0.74-3.69,2.07-5.01
	c1.36-1.36,3.16-2.1,5.06-2.1c3.34,0,6.27,2.37,6.96,5.63c0.1,0.48,0.15,0.98,0.15,1.49L370.7,543.17L370.7,543.17z M390.66,395.49
	h5.02c21.91,0,39.73,17.83,39.73,39.74V497c0,21.91-17.82,39.73-39.73,39.73h-5.02V395.49z M148.28,160.97H265.7v5.94
	c0,4.91-3.99,8.9-8.9,8.9h-99.6c-4.92,0-8.92-3.99-8.92-8.9L148.28,160.97L148.28,160.97z M-21.41,435.23
	c0-21.92,17.82-39.74,39.73-39.74h5.04v141.24h-5.04c-21.91,0-39.73-17.82-39.73-39.73L-21.41,435.23z"/>
</svg>
