<?xml version="1.0" encoding="utf-8"?>
<!-- Generator: Adobe Illustrator 23.0.3, SVG Export Plug-In . SVG Version: 6.00 Build 0)  -->
<svg version="1.1" id="Layer_1" xmlns="http://www.w3.org/2000/svg" xmlns:xlink="http://www.w3.org/1999/xlink" x="0px" y="0px"
	 viewBox="0 0 51.59 61.45" style="enable-background:new 0 0 51.59 61.45;" xml:space="preserve">
<style type="text/css">
	.st0{fill:#FFFFFF;}
</style>
<path class="st0" d="M14.45,27.92l0.25-0.15c0.68-0.38,1.55-0.13,1.93,0.55l1.05,1.88c0.07,0.01,0.13,0.01,0.2,0.01
	c2.61,0,5.02-0.81,7.01-2.2l-1.83-3.28c-0.38-0.68-0.14-1.55,0.54-1.93l0.26-0.14c0.32-0.19,0.71-0.23,1.07-0.13
	c0.36,0.11,0.67,0.35,0.85,0.67l1.48,2.66c1.84-2.15,2.95-4.95,2.95-8c0-6.8-5.53-12.34-12.34-12.34c-6.8,0-12.34,5.53-12.34,12.34
	c0,5.36,3.44,9.95,8.23,11.63c-0.06-0.24-0.06-0.49,0.01-0.73C13.88,28.41,14.12,28.11,14.45,27.92z M23.49,15.87c1.1,0,2,0.9,2,2
	c0,1.11-0.9,2-2,2c-1.11,0-2-0.89-2-2C21.49,16.77,22.38,15.87,23.49,15.87z M12.08,19.87c-1.11,0-2-0.89-2-2c0-1.1,0.89-2,2-2
	c1.1,0,2,0.9,2,2C14.08,18.98,13.18,19.87,12.08,19.87z"/>
<path class="st0" d="M51.55,51.11c-0.05-0.39-0.41-0.66-0.79-0.61c-0.39,0.05-0.66,0.41-0.61,0.79c0.01,0.05,0.64,5.27-3.98,7.84
	c-4.15,2.32-7.04-0.54-7.55-1.11l1.6-0.89l-0.52-0.93l-1.06,0.59l-0.54-0.96l1.06-0.59l-0.5-0.89l-1.06,0.59l-0.54-0.96l1.06-0.59
	l-0.6-1.07l0.22-0.12c2.28-1.27,3.03-4.24,1.69-6.63l-0.22-0.4c-1.25-2.24-0.54-5.01,1.58-6.2l-4.06-7.27L35.7,32.3l-6.17,3.44
	l-14.17,7.91l4.06,7.27c2.12-1.18,4.85-0.33,6.1,1.91l0.22,0.4c1.34,2.4,4.27,3.31,6.55,2.04l0.22-0.12l0.59,1.06l1.06-0.59
	l0.54,0.96l-1.06,0.59l0.5,0.89l1.06-0.59l0.54,0.96l-1.06,0.59l0.52,0.93l2.2-1.23c0.02,0.04,0.03,0.08,0.06,0.11
	c0.03,0.04,2.19,2.62,5.59,2.62c1.14,0,2.43-0.29,3.83-1.07C52.32,57.34,51.56,51.18,51.55,51.11z"/>
<path class="st0" d="M35.75,30.87l0.41-0.23l1.59-0.89L36.79,28l-1.04,0.57V4c0-2.21-1.79-4-4-4H4C1.8,0,0,1.79,0,4v27.74
	c0,2.21,1.8,4,4,4h13.2l-2.92-5.24c-5.49-1.56-9.53-6.63-9.53-12.64c0-7.24,5.9-13.14,13.14-13.14c7.25,0,13.14,5.9,13.14,13.14
	c0,3.35-1.26,6.42-3.33,8.75l2.75,4.93l-2.73,1.52l-2.42-4.35c-2.05,1.4-4.5,2.24-7.15,2.28l2.64,4.74h2.15l-1.63,0.92l-2.72,1.51
	l-4.76,2.66l-1.59,0.89l0.97,1.75l1.6-0.89l12.25-6.84L35.75,30.87z"/>
</svg>
